# xmcd
#
# Track frame offsets:
#	150
#	15981
#	45270
#	63363
#	82611
#	103054
#	114026
#	129820
#	141730
#	160403
#	178553
#	202484
#	214296
#	225899
#	246262
#	260336
#	277592
#	290752
#
# Disc length: 4083 seconds
#
# Revision: 1
# Processed by: cddbd v1.5.2PL0 Copyright (c) Steve Scherf et al.
# Submitted via: audiograbber 1.83.01
#
DISCID=f20ff112
DTITLE=Various Artist - RoadTrippin' - (Disc1)
DYEAR=2007
DGENRE=Crossover
TTITLE0=Steppenwoof - Born To Be Wild
TTITLE1=Deep Purple - Highway Syar
TTITLE2=The Commitments - Mustang Sally
TTITLE3=Free - All Right Now
TTITLE4=R.E.M. - (Dont Go Back To) Rockville
TTITLE5=Kings Of Leon - King Of The Rodeo
TTITLE6=David Bowie - Alwaks Crashing In The Same Car
TTITLE7=Jimmy Cliff - Hard Road To Travel
TTITLE8=Beastie Boys - No Sleep Till Brooklyn
TTITLE9=Depeche Mode - Behind The Wheel
TTITLE10=Lynard Skynyrd - Truck Drivin' Man
TTITLE11=J.J. Cale - Call Me The Breeze
TTITLE12=Willie Nelson - On The Road Again
TTITLE13=The Band - Up On Cripple Creek
TTITLE14=Muddy Waters - Rollin' Stone
TTITLE15=John Hiatt - Drive South
TTITLE16=Sonny Boy Williamson - Open Road
TTITLE17=Etta James - One For My Baby
EXTD=
EXTT0=
EXTT1=
EXTT2=
EXTT3=
EXTT4=
EXTT5=
EXTT6=
EXTT7=
EXTT8=
EXTT9=
EXTT10=
EXTT11=
EXTT12=
EXTT13=
EXTT14=
EXTT15=
EXTT16=
EXTT17=
PLAYORDER=
